<?xml version="1.0" encoding="UTF-8" standalone="no"?>
<svg
   xmlns:dc="http://purl.org/dc/elements/1.1/"
   xmlns:cc="http://creativecommons.org/ns#"
   xmlns:rdf="http://www.w3.org/1999/02/22-rdf-syntax-ns#"
   xmlns:svg="http://www.w3.org/2000/svg"
   xmlns="http://www.w3.org/2000/svg"
   xmlns:sodipodi="http://sodipodi.sourceforge.net/DTD/sodipodi-0.dtd"
   xmlns:inkscape="http://www.inkscape.org/namespaces/inkscape"
   inkscape:version="1.0 (4035a4fb49, 2020-05-01)"
   sodipodi:docname="github.svg"
   viewBox="0 0 37.600017 37.600012"
   height="37.600014"
   width="37.600018"
   xml:space="preserve"
   id="svg833"
   version="1.1"><metadata
     id="metadata839"><rdf:RDF><cc:Work
         rdf:about=""><dc:format>image/svg+xml</dc:format><dc:type
           rdf:resource="http://purl.org/dc/dcmitype/StillImage" /><dc:title></dc:title></cc:Work></rdf:RDF></metadata><defs
     id="defs837"><clipPath
       id="clipPath851"
       clipPathUnits="userSpaceOnUse"><path
         id="path849"
         d="M 0,551.986 H 530.973 V 0 H 0 Z" /></clipPath></defs><sodipodi:namedview
     inkscape:lockguides="false"
     inkscape:document-units="cm"
     units="px"
     fit-margin-bottom="2.8"
     fit-margin-right="2.8"
     fit-margin-left="2.8"
     fit-margin-top="2.8"
     inkscape:current-layer="g853"
     inkscape:window-maximized="1"
     inkscape:window-y="-8"
     inkscape:window-x="-8"
     inkscape:cy="21.711138"
     inkscape:cx="29.929123"
     inkscape:zoom="12.434751"
     showgrid="false"
     id="namedview835"
     inkscape:window-height="1057"
     inkscape:window-width="1858"
     inkscape:pageshadow="2"
     inkscape:pageopacity="0"
     guidetolerance="10"
     gridtolerance="10"
     objecttolerance="10"
     borderopacity="1"
     bordercolor="#666666"
     pagecolor="#ffffff"
     inkscape:document-rotation="0"
     lock-margins="true" /><g
     id="g853"
     transform="matrix(10.333018,0,0,-10.333018,34.653237,-130.45421)"
     style="display:inline"><path
       d="m -1.5343737,-12.895962 c -0.8550395,0 -1.5482917,-0.710796 -1.5482917,-1.58767 0,-0.70144 0.443632,-1.29645 1.0589373,-1.506483 0.077472,-0.01452 0.1057036,0.0345 0.1057036,0.07661 0,0.03762 -0.00133,0.13752 -0.00209,0.269972 -0.4307042,-0.0959 -0.5215789,0.212859 -0.5215789,0.212859 -0.070437,0.183328 -0.1719585,0.232157 -0.1719585,0.232157 -0.1405896,0.09853 0.010646,0.09658 0.010646,0.09658 0.1554185,-0.01131 0.2371677,-0.16364 0.2371677,-0.16364 0.1381182,-0.242585 0.3624531,-0.172509 0.4506662,-0.131965 0.014068,0.102629 0.053992,0.172607 0.098289,0.212274 -0.3438219,0.04006 -0.7053245,0.176311 -0.7053245,0.784674 0,0.173289 0.060361,0.315 0.159411,0.42601 -0.01597,0.04015 -0.069107,0.201553 0.015114,0.420162 0,0 0.1300382,0.04269 0.4258563,-0.162763 0.1234793,0.03518 0.2559889,0.05283 0.3876431,0.05341 0.1314642,-5.85e-4 0.2639738,-0.01823 0.3876432,-0.05341 0.29562796,0.205452 0.42538102,0.162763 0.42538102,0.162763 0.0845059,-0.218609 0.0313689,-0.380008 0.0153993,-0.420162 0.0992397,-0.11101 0.15922083,-0.252721 0.15922083,-0.42601 0,-0.609923 -0.3620729,-0.744129 -0.70703555,-0.783407 0.055608,-0.04902 0.1051333,-0.145901 0.1051333,-0.294045 0,-0.212176 -0.0019,-0.383419 -0.0019,-0.435464 0,-0.04249 0.027852,-0.09191 0.106464,-0.07641 0.61483007,0.210423 1.05808176,0.805043 1.05808176,1.506288 0,0.876874 -0.69334721,1.58767 -1.54857686,1.58767"
       style="fill:#1b1817;fill-opacity:1;fill-rule:evenodd;stroke:none;stroke-width:0.0962524"
       id="path855" /></g></svg>
